<svg height="35.10000000000001" width="51.60000000000001" xmlns="http://www.w3.org/2000/svg" xmlns:xlink="http://www.w3.org/1999/xlink"><path d=" M 15.921936354510647 2.4909338209214535 C 14.67237135952979,2.4584474224282524 13.206533710522923,2.5805791873954895 12.664519356717602,2.7623377430708698 C 12.122505002912279,2.9440962987462496 11.093321263726397,3.608376962883996 10.377444380748969,4.238516996710307 C 9.661567497771543,4.868657030536617 8.848871324326334,5.862548303191015 8.571452884204056,6.4471642692756355 C 8.26120407808042,7.100965096065029 8.059645764649813,8.297603404991355 8.04780466573559,9.556028934568264 C 8.03408577304763,11.014019018184353 8.209202373354833,12.010341970082829 8.65718293109282,13.023076325269109 C 9.071637352607745,13.960019288701268 10.247593480214892,15.388933162159379 12.108756883743066,17.217111961823253 C 13.661376431718848,18.742215096868893 15.217068675230388,20.54939259434686 15.565850758213156,21.233061956218737 C 15.914632841195921,21.91673131809061 16.200000000000003,22.95935343779218 16.200000000000003,23.550000000000004 C 16.200000000000003,24.140646562207827 15.934515173447283,25.14429609109692 15.610033718771733,25.780332286420208 C 15.205857406599145,26.57258330764143 14.609180137855597,27.1356688616523 13.71531641447759,27.568380866231276 C 12.997703351791356,27.91577138980407 11.906484088214711,28.199999999999996 11.290384717640594,28.2 C 10.674285347066478,28.200000000000003 9.800884279961126,28.009017327683573 9.349493457406478,27.77559406151905 C 8.89810263485183,27.542170795354526 8.349356584884028,27.01592704081399 8.130057790811364,26.606163495873417 C 7.840731154329633,26.06555173048813 7.785594183194302,25.21483984497188 7.929099783543594,23.50556943435437 C 8.037871673618984,22.21000624545947 8.154571813716155,20.5425 8.18843342820397,19.800000000000004 C 8.250000000000002,18.450000000000003 8.250000000000002,18.450000000000003 7.104480207081861,18.486038531272715 C 6.25443142914913,18.512781420968945 5.70637688217903,18.766890660862714 4.979712296483125,19.47120170836495 C 4.441125831758797,19.99322026356569 3.692701435336537,20.98950292449297 3.3165469711003244,21.68516317709224 C 2.916607694042102,22.42481107431347 2.5704406407107974,23.697400810218745 2.482856817869177,24.750000000000004 C 2.400481697828258,25.740000000000002 2.4828529383764897,27.103359793034517 2.6659040190874683,27.779688428965585 C 2.8489550997984474,28.45601706489665 3.302761228521895,29.454760004121255 3.6743620829173516,29.999117182798027 C 4.045962937312809,30.543474361474804 5.053395956387194,31.38387013397124 5.913102125304877,31.86666334390121 C 7.09571524333062,32.5307944203081 8.008537095593441,32.784603062465244 9.663102125304878,32.909344789059325 C 11.170272033653559,33.02297403497107 12.431353174600359,32.925113666701726 13.720395341851814,32.59449731774604 C 14.74911277987031,32.33064962361674 16.23411277987031,31.78575370029875 17.020395341851817,31.383617488150495 C 17.806677903833318,30.981481276002242 19.04267249631736,30.06690707256228 19.767049991816346,29.351230369395026 C 20.49142748731534,28.635553666227764 21.36695634470717,27.442500000000003 21.712669674909304,26.700000000000003 C 22.18034882108779,25.695549966689192 22.338081334575218,24.774083388851352 22.32890151902799,23.100000000000005 C 22.31978441569476,21.43735316727516 22.141332214986043,20.458431221816568 21.64529670685454,19.35 C 21.25853742933278,18.485755300770354 20.137536424995552,17.004692299152396 19.000408800346566,15.855582415537846 C 17.914917282525717,14.75865274408366 17.112308714477933,13.722789179929375 17.216834204684826,13.55366338408388 C 17.32135969489172,13.384537588238384 17.776582426649544,13.161258208342906 18.22844027525777,13.057486984316153 C 18.680298123866,12.9537157602894 19.402761821531406,12.572079324443685 19.833915158958686,12.209406015770119 C 20.26506849638596,11.846732707096555 20.86131849638596,11.16810685112751 21.158915158958685,10.701348558061134 C 21.520020020374933,10.134982365391108 21.697761095980876,9.286780912989167 21.693269045658194,8.151348558061134 C 21.6895670207702,7.215606851127511 21.475194485747956,5.9526983700181395 21.216885634497654,5.3448852667069735 C 20.93306148042702,4.677033433348111 20.242086621639636,3.905473133603619 19.470552943350107,3.3948852667069733 C 18.384814275786024,2.676361881560953 17.854079646157686,2.541166003457402 15.921936354510647,2.4909338209214535" stroke="none" stroke-width="1" style="fill: rgb(28, 32, 38);" /><path d=" M 43.015194132183225 2.420068720724859 C 41.87933735948245,2.431106517123532 40.391906403085336,2.6147410972716676 39.70979200685628,2.8281455654984935 C 39.02767761062724,3.04155003372532 37.74517761062724,3.644468425750536 36.85979200685628,4.167964214443418 C 35.97440640308533,4.691460003136301 35.023063083636565,5.277510375361779 34.74569574141457,5.470298374944481 C 34.32320562571597,5.763955961293667 33.99677146034962,5.5920086195255445 32.73354803768874,4.410411005274697 C 31.90423414286152,3.6346849523736138 31.017421059224965,3.0000000000000004 30.762852296274172,3.0000000000000004 C 30.47649089723902,3.0000000000000004 30.300000000000004,3.2699153548327655 30.300000000000004,3.7078605397694355 C 30.300000000000004,4.097183836642625 30.720655489105734,5.23135570214279 31.23478997579052,6.228242463103137 C 32.16957995158103,8.040763846667401 32.16957995158103,8.040763846667401 31.20746666006946,9.439147581592056 C 30.67830434973809,10.208258635800618 29.856217263290656,11.695752601330046 29.380606467964046,12.744689727213004 C 28.904995672637437,13.793626853095963 28.222240008539117,15.708932306879705 27.86337165885667,17.00092406895465 C 27.38999408066355,18.705170018528353 27.207680291537777,20.214686583686465 27.19921374709888,22.500000000000004 C 27.188730424917573,25.329687719870936 27.271054075378867,25.823955825605044 28.008797128818134,27.36070822022525 C 28.48567732420064,28.354071395635142 29.431982156666635,29.61205046477336 30.265523466357894,30.36070822022525 C 31.05503359027484,31.069818699101365 32.432022224673965,31.920000000000005 33.32549820946708,32.25000000000001 C 34.6252624702647,32.73006013968303 35.66963916190181,32.847540833151655 38.550000000000004,32.83769800043863 C 41.789688717577704,32.82662726455457 42.34952961250039,32.74212218616294 44.143572336043384,31.99337727818789 C 45.240037120867235,31.535766980708736 46.67941901698219,30.697191898599478 47.34219877185438,30.12987709572286 C 48.00497852672657,29.562562292846245 48.82912097550705,28.516133830926712 49.173626435810995,27.80448051367945 C 49.535495474350085,27.056958830109604 49.800000000000004,25.917143743240807 49.800000000000004,25.10528269570585 C 49.800000000000004,24.332377213067634 49.71095574340875,23.700000000000003 49.60212387424167,23.700000000000003 C 49.493292005074586,23.7 48.617975878345064,24.449976336645197 47.65697692595385,25.36661408143377 C 46.59799490761022,26.376711841322876 45.130564016201994,27.38650804841297 43.93179766247762,27.930054658440472 C 42.75491728628023,28.46367769257266 41.19568297124258,28.897683545842053 40.08171693641489,29.00170729881387 C 38.59050521257011,29.14095879763888 37.933178170132955,29.054283408608836 36.85138394078491,28.575754384942115 C 36.104395550002224,28.245325902672395 35.191719506606596,27.654355877859167 34.82321495546131,27.262487663134948 C 34.45471040431602,26.87061944841073 33.93704802047669,26.077500000000004 33.672854102485005,25.500000000000004 C 33.32264896689877,24.734488563028084 33.19076655742878,23.515251864336314 33.18609804990577,21.000000000000004 C 33.180588923320066,18.03184779133644 33.292985331753925,17.21480153646161 33.99084929307603,15.150000000000002 C 34.43698438774658,13.830000000000002 35.06956881967192,12.311250000000003 35.39659247513235,11.775000000000002 C 35.72361613059279,11.238750000000001 36.13942247699919,10.8 36.320606578257674,10.8 C 36.50179067951617,10.799999999999999 37.75252496810485,11.083693288847348 39.100016108454746,11.430429530771885 C 40.799491441898994,11.86773829868623 42.10410062449419,12.01779744638881 43.35882361653659,11.920287362081055 C 44.35367660563171,11.842972927376561 45.72044484138655,11.497699366367277 46.39608636265846,11.153012782060426 C 47.07172788393036,10.808326197753575 47.97363551262179,10.111416215468335 48.40032553752832,9.604323932537673 C 48.827015562434845,9.097231649607009 49.26237085731673,8.222611126527239 49.36778174837698,7.66072277013818 C 49.47319263943721,7.09883441374912 49.4045059079402,6.169658987490215 49.2151445672725,5.5958884895628325 C 49.02578322660481,5.02211799163545 48.544135524635514,4.225953706453691 48.144816340674076,3.826634522492255 C 47.74549715671264,3.4273153385308204 46.89264299155919,2.942964722985839 46.24958486255531,2.7502998212811867 C 45.60652673355144,2.557634919576534 44.151050904883995,2.4090309243261867 43.015194132183225,2.420068720724859" stroke="none" stroke-width="1" style="fill: rgb(28, 32, 38);" /><path d=" M 15.892965186297893 5.854468085930723 C 16.466596038761733,5.925895506307296 17.276596038761735,6.237461582536525 17.692965186297894,6.546837144217896 C 18.109334333834052,6.856212705899269 18.491761692383005,7.4573368975945105 18.54280376085112,7.882668681318435 C 18.593845829319235,8.30800046504236 18.34668539237445,9.327616807522242 17.993558345418265,10.148482775718174 C 17.640431298462083,10.969348743914107 17.024010563598548,11.948635319222971 16.62373449016597,12.324675165293428 C 15.895959811197642,13.008383976330625 15.895959811197642,13.008383976330625 14.957652442336308,12.129191988165314 C 14.441583389462572,11.645636394674392 13.632492431943104,10.649819608531129 13.159672536737487,9.91626579673584 C 12.68685264153187,9.182711984940552 12.300000000000002,8.220492021525244 12.300000000000002,7.777999211368492 C 12.300000000000002,7.335506401211739 12.493869053632425,6.812569805370269 12.730820119183166,6.615917887276335 C 12.967771184733907,6.4192659691824 13.541521184733906,6.138270943596247 14.005820119183166,5.991484497084884 C 14.470119053632427,5.8446980505735215 15.319334333834053,5.783040665554148 15.892965186297893,5.854468085930723" stroke="none" stroke-width="1" style="fill: rgb(28, 32, 38);" /><path d=" M 42.989897978065265 5.72006872072486 C 43.28684186600116,5.7090309243261865 43.92809186600116,5.905966819741266 44.41489797806527,6.157704043869479 C 45.08820676235612,6.505885548041308 45.300000000000004,6.8248521854351525 45.300000000000004,7.490692853274763 C 45.300000000000004,8.055101881371717 45.063189091852365,8.53184643543444 44.63324812697839,8.832988809405286 C 44.23206897985458,9.113985622044135 43.329042999822796,9.3 42.36609414293172,9.3 C 41.485872981867956,9.3 40.16591132472769,9.148973477007358 39.432846015953345,8.964385504460795 C 38.699780707179016,8.779797531914232 38.10000000000001,8.467685428466172 38.10000000000001,8.270803052353997 C 38.10000000000001,8.073920676241825 38.527971942835066,7.596421757878424 39.05104876185569,7.209694344879779 C 39.57412558087631,6.8229669318811315 40.55287558087631,6.334109959655376 41.22604876185569,6.123345517711434 C 41.89922194283507,5.91258107576749 42.69295409012937,5.731106517123533 42.989897978065265,5.72006872072486" stroke="none" stroke-width="1" style="fill: rgb(28, 32, 38);" /></svg>